<?xml version="1.0" encoding="utf-8"?>
<!-- Generator: Adobe Illustrator 24.3.0, SVG Export Plug-In . SVG Version: 6.00 Build 0)  -->
<svg version="1.1" id="Layer_1" xmlns="http://www.w3.org/2000/svg" xmlns:xlink="http://www.w3.org/1999/xlink" x="0px" y="0px"
	 viewBox="0 0 39.76 38.82" style="enable-background:new 0 0 39.76 38.82;" xml:space="preserve">
<style type="text/css">
	.st0{fill:#231F20;}
</style>
<g>
	<path class="st0" d="M28.7,32.8c-0.31-1.15-1.14-2.04-2.03-2.93c-1.76-1.76-4.49-2.78-6.08-1.19c-0.84,0.84-0.93,1.36-1.01,1.81
		c-0.06,0.35-0.11,0.63-0.64,1.17c-1.01,1.01-4.97,0.03-8.39-3.39c-3.41-3.41-4.39-7.38-3.39-8.39c0.54-0.54,0.82-0.58,1.17-0.64
		c0.45-0.08,0.97-0.17,1.81-1.01c1.59-1.59,0.58-4.32-1.19-6.08c-0.89-0.89-1.79-1.72-2.93-2.03c-1.1-0.3-2.23-0.03-3.36,0.79
		c-0.01,0.01-0.02,0.02-0.04,0.03c-0.31,0.23-0.63,0.49-0.94,0.8c-3.39,3.39-1.62,13.93,4.92,20.47c4.36,4.36,10.51,6.61,15.12,6.61
		c2.3,0,4.22-0.56,5.35-1.69c0.31-0.31,0.57-0.62,0.79-0.92c0.01-0.02,0.03-0.03,0.04-0.05C28.72,35.02,29,33.9,28.7,32.8z
		 M23.48,28.89c0.86,0.25,1.83,0.85,2.57,1.59c0.65,0.65,1.53,1.53,1.81,2.55c0.18,0.65,0.08,1.32-0.27,2.01
		c-0.6-1.15-2.17-3.43-5.95-6.06C22.25,28.65,22.95,28.73,23.48,28.89z M5.79,10.96c1.02,0.28,1.9,1.16,2.55,1.81
		c1.12,1.12,2.19,3.11,1.5,4.42c-2.62-3.78-4.9-5.35-6.06-5.95C4.48,10.88,5.14,10.78,5.79,10.96z M7.22,31.6
		C0.67,25.05-0.46,15.12,2.3,12.36c0.22-0.22,0.43-0.4,0.64-0.57c0.71,0.3,3.28,1.63,6.32,6.08c-0.48,0.41-0.76,0.46-1.08,0.52
		c-0.43,0.07-0.91,0.15-1.64,0.89c-1.6,1.6,0.04,6.27,3.39,9.61c1.63,1.63,3.56,2.89,5.44,3.55s3.4,0.6,4.17-0.17
		c0.73-0.73,0.81-1.21,0.89-1.64c0.05-0.32,0.11-0.6,0.52-1.08c4.45,3.04,5.78,5.62,6.08,6.32c-0.17,0.21-0.35,0.43-0.57,0.64
		C23.7,39.28,13.77,38.15,7.22,31.6z"/>
	<path class="st0" d="M28.17,0c-6.4,0-11.61,5.21-11.61,11.61c0,2.55,0.82,4.97,2.36,7.01l-0.6,6.79c-0.01,0.15,0.06,0.3,0.18,0.39
		c0.07,0.05,0.16,0.08,0.25,0.08c0.06,0,0.12-0.01,0.18-0.04l6.4-2.98c0.95,0.24,1.89,0.36,2.82,0.36c6.4,0,11.61-5.21,11.61-11.61
		C39.78,5.2,34.57,0,28.17,0z M28.17,22.34c-0.9,0-1.83-0.12-2.76-0.37c-0.1-0.02-0.2-0.02-0.29,0.03l-5.86,2.73l0.54-6.21
		c0.01-0.11-0.02-0.22-0.09-0.3c-1.5-1.91-2.29-4.2-2.29-6.61c0-5.92,4.82-10.74,10.74-10.74S38.9,5.69,38.9,11.61
		C38.91,17.53,34.09,22.34,28.17,22.34z"/>
	<path class="st0" d="M23.14,10.62c-0.54,0-0.98,0.44-0.98,0.98s0.44,0.98,0.98,0.98s0.98-0.44,0.98-0.98S23.68,10.62,23.14,10.62z"
		/>
	<path class="st0" d="M28.17,10.62c-0.54,0-0.98,0.44-0.98,0.98s0.44,0.98,0.98,0.98s0.98-0.44,0.98-0.98
		C29.16,11.06,28.72,10.62,28.17,10.62z"/>
	<path class="st0" d="M33.21,10.62c-0.54,0-0.98,0.44-0.98,0.98s0.44,0.98,0.98,0.98s0.98-0.44,0.98-0.98S33.75,10.62,33.21,10.62z"
		/>
</g>
</svg>
