<svg viewBox="0 0 35 45" xmlns="http://www.w3.org/2000/svg"><g opacity=".8"><path d="m30.9171196 0h-27.14673917c-2.08129008.00247959-3.76788737 1.67996014-3.77038043 3.75v37.5c.00249306 2.0700399 1.68909035 3.7475204 3.77038043 3.75h27.14673917c2.08129-.0024796 3.7678873-1.6799601 3.7703804-3.75v-37.5c-.0024931-2.07003986-1.6890904-3.74752041-3.7703804-3.75zm-.7540761 1.5v4.9395l-.9750204-.96975c-.2944666-.29278645-.771797-.29278645-1.0662636 0l-.9750204.96975v-4.9395zm3.0163043 39.75c0 1.2426407-1.0128341 2.25-2.2622282 2.25h-27.14673917c-1.24939416 0-2.26222826-1.0073593-2.26222826-2.25v-37.5c0-1.24264069 1.0128341-2.25 2.26222826-2.25h21.86820657v6.75c.0000651.30329692.183789.57670054.4655254.69275848.2817363.11605795.606021.05192246.8216824-.16250848l1.7290965-1.71975 1.7290965 1.71975c.2156614.21443094.5399461.27856643.8216824.16250848.2817364-.11605794.4654603-.38946156.4655255-.69275848v-6.612c.9006314.31669091 1.5041922 1.16191093 1.5081521 2.112z"/><path d="m6.5625 21.5625h2.8125v1.875h-2.8125z"/><path d="m11.25 21.5625h17.8125v1.875h-17.8125z"/><path d="m5.625 25.3125h22.5v1.875h-22.5z"/><path d="m5.625 29.0625h22.5v1.875h-22.5z"/><path d="m5.625 32.8125h22.5v1.875h-22.5z"/><path d="m5.625 36.5625h22.5v1.875h-22.5z"/></g></svg>