<svg viewBox="0 0 38 38" xmlns="http://www.w3.org/2000/svg"><g><path d="m37.0028633 29.315635-7.6913383-5.1295916c-.9760547-.6457259-2.2844119-.4332545-3.0060082.4882463l-2.2404067 2.8807941c-.2879262.3796729-.8113136.4898047-1.2278418.2584091l-.4261752-.2349579c-1.4127675-.7701066-3.1706011-1.7288623-6.7123152-5.2720802s-4.5023337-5.3025075-5.2723877-6.7127741l-.2336802-.4262043c-.2345708-.4164825-.1265243-.942132.2532711-1.2323785l2.8786677-2.2398919c.9210668-.7217199 1.1338205-2.02979545.4888808-3.00621379l-5.12924094-7.69186411c-.66096859-.99430365-1.9870614-1.29278769-3.01031231-.67763745l-3.21623886 1.93213131c-1.01056139.594148-1.75197119 1.5563917-2.06876415 2.6850948-1.15816064 4.22018741-.28688723 11.50358404 10.44147816 22.23394454 8.5341901 8.5341056 14.8874882 10.8292406 19.2543185 10.8292406 1.0049958.0042014 2.0060586-.1265616 2.9762509-.388904 1.1288486-.3164435 2.0911749-1.0579782 2.6849113-2.0689056l1.9339286-3.2145292c.6159987-1.0235435.3176835-2.3505433-.6769975-3.0119281zm-.4141535 2.3621205-1.9294762 3.2164587c-.4263236.7296607-1.1184595 1.2661453-1.9314056 1.4970957-3.8956851 1.0696297-10.7017248.1836768-21.0013919-10.1166945-10.29966713-10.3003712-11.18548526-17.10628245-10.1159287-21.00282767.2312314-.81396644.76834723-1.50704016 1.49884849-1.93406084l3.21623887-1.92960808c.44398507-.26716623 1.01954052-.13766482 1.30635354.29380864l2.7862791 4.18345205 2.3385836 3.50774414c.2800601.42353268.1880424.99118666-.2114922 1.30458756l-2.87933558 2.2398919c-.87624533.6700678-1.12647392 1.882483-.58698345 2.8447267l.22863414.4154434c.80930989 1.4844053 1.81549299 3.3310434 5.48892599 7.0041337 3.6734329 3.6730162 5.5193511 4.6793423 7.002987 5.4886333l.4160088.2292435c.9621037.5394531 2.1745102.2892817 2.8445321-.5870236l2.2397389-2.8795324c.3134536-.3993393.8808462-.491289 1.3044983-.2115066l7.6906704 5.1295916c.4317408.2866099.5612334.8625016.2937144 1.3064428z"/><path d="m21.3749772 6.47722718c6.0786153.00675562 11.0046005 4.93281672 11.011432 11.01143192 0 .3577442.2899603.6477045.6477045.6477045s.6477045-.2899603.6477045-.6477045c-.0075147-6.7938-5.5130409-12.29940215-12.306841-12.30684092-.3577442 0-.6477045.2899603-.6477045.6477045 0 .35774421.2899603.6477045.6477045.6477045z"/><path d="m21.3441352 9.87008856c3.7458508.00440978 6.7813665 3.03992544 6.7857762 6.78577624 0 .3407093.2762255.6168625.6168625.6168625.3407093 0 .6168625-.2761532.6168625-.6168625-.0051327-4.4269804-3.5925931-8.01444077-8.0195012-8.01950116-.3407093 0-.6168625.27615312-.6168625.61686246s.2761532.61686246.6168625.61686246z"/><path d="m21.374981 13.3863257c1.7877448.0021254 3.236492 1.4508726 3.2386933 3.2386933 0 .3577463.2900379.6477083.6477083.6477083s.6477083-.289962.6477083-.6477083c-.0028844-2.5029337-2.0311762-4.5313014-4.5341099-4.5341099-.3577463 0-.6477083.289962-.6477083.6477083s.289962.6477083.6477083.6477083z"/></g></svg>